<svg width="100%" height="100%" viewBox="0 0 1440 320" xmlns="http://www.w3.org/2000/svg">
  <path fill="#00b0f0" fill-opacity="0.3" d="M0,64L48,74.7C96,85,192,107,288,128C384,149,480,171,576,160C672,149,768,107,864,106.7C960,107,1056,149,1152,154.7C1248,160,1344,128,1392,112L1440,96L1440,320L1392,320C1344,320,1248,320,1152,320C1056,320,960,320,864,320C768,320,672,320,576,320C480,320,384,320,288,320C192,320,96,320,48,320L0,320Z">
    <animate attributeName="d" dur="10s" repeatCount="indefinite" keyTimes="0;0.5;1" values="
      M0,64L48,74.7C96,85,192,107,288,128C384,149,480,171,576,160C672,149,768,107,864,106.7C960,107,1056,149,1152,154.7C1248,160,1344,128,1392,112L1440,96L1440,320L1392,320C1344,320,1248,320,1152,320C1056,320,960,320,864,320C768,320,672,320,576,320C480,320,384,320,288,320C192,320,96,320,48,320L0,320Z;
      M0,128L48,138.7C96,149,192,171,288,192C384,213,480,235,576,224C672,213,768,171,864,170.7C960,171,1056,213,1152,218.7C1248,224,1344,192,1392,176L1440,160L1440,320L1392,320C1344,320,1248,320,1152,320C1056,320,960,320,864,320C768,320,672,320,576,320C480,320,384,320,288,320C192,320,96,320,48,320L0,320Z;
      M0,64L48,74.7C96,85,192,107,288,128C384,149,480,171,576,160C672,149,768,107,864,106.7C960,107,1056,149,1152,154.7C1248,160,1344,128,1392,112L1440,96L1440,320L1392,320C1344,320,1248,320,1152,320C1056,320,960,320,864,320C768,320,672,320,576,320C480,320,384,320,288,320C192,320,96,320,48,320L0,320Z
    " keySplines="0.42,0,0.58,1;0.42,0,0.58,1" />
  </path>
  <path fill="#0091d1" fill-opacity="0.2" d="M0,160L48,149.3C96,139,192,117,288,122.7C384,128,480,160,576,186.7C672,213,768,235,864,213.3C960,192,1056,128,1152,106.7C1248,85,1344,107,1392,117.3L1440,128L1440,320L1392,320C1344,320,1248,320,1152,320C1056,320,960,320,864,320C768,320,672,320,576,320C480,320,384,320,288,320C192,320,96,320,48,320L0,320Z">
    <animate attributeName="d" dur="10s" repeatCount="indefinite" keyTimes="0;0.5;1" values="
      M0,160L48,149.3C96,139,192,117,288,122.7C384,128,480,160,576,186.7C672,213,768,235,864,213.3C960,192,1056,128,1152,106.7C1248,85,1344,107,1392,117.3L1440,128L1440,320L1392,320C1344,320,1248,320,1152,320C1056,320,960,320,864,320C768,320,672,320,576,320C480,320,384,320,288,320C192,320,96,320,48,320L0,320Z;
      M0,64L48,74.7C96,85,192,107,288,128C384,149,480,171,576,160C672,149,768,107,864,106.7C960,107,1056,149,1152,154.7C1248,160,1344,128,1392,112L1440,96L1440,320L1392,320C1344,320,1248,320,1152,320C1056,320,960,320,864,320C768,320,672,320,576,320C480,320,384,320,288,320C192,320,96,320,48,320L0,320Z;
      M0,160L48,149.3C96,139,192,117,288,122.7C384,128,480,160,576,186.7C672,213,768,235,864,213.3C960,192,1056,128,1152,106.7C1248,85,1344,107,1392,117.3L1440,128L1440,320L1392,320C1344,320,1248,320,1152,320C1056,320,960,320,864,320C768,320,672,320,576,320C480,320,384,320,288,320C192,320,96,320,48,320L0,320Z
    " keySplines="0.42,0,0.58,1;0.42,0,0.58,1" />
  </path>
</svg>